# xmcd
#
# Track frame offsets:
#	150
#	16565
#	35632
#	51137
#	62575
#	76602
#	92154
#	104527
#	123255
#	139695
#	162497
#
# Disc length: 2392 seconds
#
# Revision: 1
# Processed by: cddbd v1.5.1PL2 Copyright (c) Steve Scherf et al.
# Submitted via: audiograbber 1.83.01
#
DISCID=8309560b
DTITLE=Pamela Rodríguez - Perú Blue
DYEAR=2005
DGENRE=Blues
TTITLE0=Amorcito
TTITLE1=Cardo o ceniza
TTITLE2=No miento
TTITLE3=Azul sin resplandor
TTITLE4=En el silencio
TTITLE5=Tu sonrisa
TTITLE6=No está cerca
TTITLE7=Cómo hacer
TTITLE8=Cuando llora mi guitarra
TTITLE9=Aunque no lo creas
TTITLE10=Silent tears
EXTD=
EXTT0=
EXTT1=
EXTT2=
EXTT3=
EXTT4=
EXTT5=
EXTT6=
EXTT7=
EXTT8=
EXTT9=
EXTT10=
PLAYORDER=
